<?xml version="1.0" encoding="UTF-8"?>
<svg width="26px" height="26px" viewBox="0 0 26 26" version="1.1" xmlns="http://www.w3.org/2000/svg">
    <!-- Generator: Sketch 54.1 (76490) - https://sketchapp.com -->
    <title>new-plus-icon</title>
    <desc>Created with Sketch.</desc>
    <g id="Backbone-Rebranding" stroke="none" stroke-width="1" fill="none" fill-rule="evenodd">
        <g id="Rubiflow" transform="translate(-1137.000000, -4.000000)" fill="#4E72B8">
            <g id="new-plus-icon" transform="translate(1137.000000, 4.000000)">
                <circle id="Oval-Copy-2" fill-opacity="0.145350743" cx="13" cy="13" r="13"></circle>
                <path d="M14.1696942,12.1987765 L19.5030277,12.1987765 C20.0385766,12.1987765 20.4727247,12.6329247 20.4727247,13.1684735 C20.4727247,13.7040224 20.0385766,14.1381705 19.5030277,14.1381705 L14.1696942,14.1381705 L14.1696942,19.471504 C14.1696942,20.0070529 13.7355461,20.441201 13.1999972,20.441201 C12.6644484,20.441201 12.2303002,20.0070529 12.2303002,19.471504 L12.2303002,14.1381705 L6.89696673,14.1381705 C6.36141787,14.1381705 5.92726973,13.7040224 5.92726973,13.1684735 C5.92726973,12.6329247 6.36141787,12.1987765 6.89696673,12.1987765 L12.2303002,12.1987765 L12.2303002,6.86544302 C12.2303002,6.32989416 12.6644484,5.89574602 13.1999972,5.89574602 C13.7355461,5.89574602 14.1696942,6.32989416 14.1696942,6.86544302 L14.1696942,12.1987765 Z" id="Combined-Shape-Copy"></path>
            </g>
        </g>
    </g>
</svg>
