<?xml version="1.0" encoding="UTF-8"?>
<svg width="18px" height="18px" viewBox="0 0 18 18" version="1.1" xmlns="http://www.w3.org/2000/svg" xmlns:xlink="http://www.w3.org/1999/xlink">
    <!-- Generator: Sketch 54.1 (76490) - https://sketchapp.com -->
    <title>app-menu</title>
    <desc>Created with Sketch.</desc>
    <g id="Rubisight-Phase-2" stroke="none" stroke-width="1" fill="none" fill-rule="evenodd">
        <g id="Icons" transform="translate(-131.000000, -107.000000)" fill="#6D6E71" fill-rule="nonzero">
            <g id="app-menu" transform="translate(131.000000, 107.000000)">
                <path d="M0,4.35389584 L4.43345324,4.35389584 L4.43345324,0 L0,0 L0,4.35389584 Z M6.65017986,17.4155834 L11.0836331,17.4155834 L11.0836331,13.0616875 L6.65017986,13.0616875 L6.65017986,17.4155834 Z M0,17.4155834 L4.43345324,17.4155834 L4.43345324,13.0616875 L0,13.0616875 L0,17.4155834 Z M0,10.8847396 L4.43345324,10.8847396 L4.43345324,6.53084376 L0,6.53084376 L0,10.8847396 Z M6.65017986,10.8847396 L11.0836331,10.8847396 L11.0836331,6.53084376 L6.65017986,6.53084376 L6.65017986,10.8847396 Z M13.3003597,0 L13.3003597,4.35389584 L17.7338129,4.35389584 L17.7338129,0 L13.3003597,0 Z M6.65017986,4.35389584 L11.0836331,4.35389584 L11.0836331,0 L6.65017986,0 L6.65017986,4.35389584 Z M13.3003597,10.8847396 L17.7338129,10.8847396 L17.7338129,6.53084376 L13.3003597,6.53084376 L13.3003597,10.8847396 Z M13.3003597,17.4155834 L17.7338129,17.4155834 L17.7338129,13.0616875 L13.3003597,13.0616875 L13.3003597,17.4155834 Z" id="Shape"></path>
            </g>
        </g>
    </g>
</svg>