<?xml version="1.0" encoding="UTF-8"?>
<svg width="28px" height="28px" viewBox="0 0 28 28" version="1.1" xmlns="http://www.w3.org/2000/svg">
    <!-- Generator: Sketch 54.1 (76490) - https://sketchapp.com -->
    <title>card-view-active</title>
    <desc>Created with Sketch.</desc>
    <g id="Backbone-Rebranding" stroke="none" stroke-width="1" fill="none" fill-rule="evenodd">
        <g id="card-view-active" fill-rule="nonzero">
            <rect id="Rectangle-Copy-3" fill="#E5EBF5" x="0" y="0" width="28" height="28" rx="2"></rect>
            <g id="Group-18" transform="translate(5.500000, 5.500000)" fill="#FFFFFF" stroke="#4E72B8">
                <path d="M7,0.348258706 C7,0.155845771 6.84415423,0 6.65174129,0 L0.348258706,0 C0.155845771,0 0,0.155845771 0,0.348258706 L0,6.65174129 C0,6.84415423 0.155845771,7 0.348258706,7 L6.65174129,7 C6.84415423,7 7,6.84415423 7,6.65174129 L7,0.348258706 Z M6.30348259,6.30348259 L0.696517413,6.30348259 L0.696517413,0.696517413 L6.30348259,0.696517413 L6.30348259,6.30348259 Z" id="Shape"></path>
                <path d="M17,0.348258706 C17,0.155845771 16.8441542,0 16.6517413,0 L10.3482587,0 C10.1558458,0 10,0.155845771 10,0.348258706 L10,6.65174129 C10,6.84415423 10.1558458,7 10.3482587,7 L16.6517413,7 C16.8441542,7 17,6.84415423 17,6.65174129 L17,0.348258706 Z M16.3034826,6.30348259 L10.6965174,6.30348259 L10.6965174,0.696517413 L16.3034826,0.696517413 L16.3034826,6.30348259 Z" id="Shape"></path>
                <path d="M7,10.3482587 C7,10.1558458 6.84415423,10 6.65174129,10 L0.348258706,10 C0.155845771,10 0,10.1558458 0,10.3482587 L0,16.6517413 C0,16.8441542 0.155845771,17 0.348258706,17 L6.65174129,17 C6.84415423,17 7,16.8441542 7,16.6517413 L7,10.3482587 Z M6.30348259,16.2686567 L0.696517413,16.2686567 L0.696517413,10.6965174 L6.30348259,10.6965174 L6.30348259,16.2686567 Z" id="Shape"></path>
                <path d="M17,10.3482587 C17,10.1558458 16.8441542,10 16.6517413,10 L10.3482587,10 C10.1558458,10 10,10.1558458 10,10.3482587 L10,16.6517413 C10,16.8441542 10.1558458,17 10.3482587,17 L16.6517413,17 C16.8441542,17 17,16.8441542 17,16.6517413 L17,10.3482587 Z M16.3034826,16.2686567 L10.6965174,16.2686567 L10.6965174,10.6965174 L16.3034826,10.6965174 L16.3034826,16.2686567 Z" id="Shape"></path>
            </g>
        </g>
    </g>
</svg>
