<svg xmlns="http://www.w3.org/2000/svg" xmlns:xlink="http://www.w3.org/1999/xlink" width="150" height="150" viewBox="0 0 150 150">
  <defs>
    <linearGradient id="linear-gradient" x1="1" y1="1" x2="0" gradientUnits="objectBoundingBox">
      <stop offset="0" stop-color="#48c1ba"/>
      <stop offset="1" stop-color="#60ccc6"/>
    </linearGradient>
  </defs>
  <g id="Group_381" data-name="Group 381" transform="translate(1046 762)">
    <g id="Group_344" data-name="Group 344">
      <rect id="Rectangle_439" data-name="Rectangle 439" width="150" height="150" transform="translate(-1046 -762)" fill="none"/>
      <g id="Group_343" data-name="Group 343" transform="translate(-33.119 -963.99)">
        <g id="Group_277" data-name="Group 277" transform="translate(-1007.881 206.99)">
          <rect id="Rectangle_376" data-name="Rectangle 376" width="140" height="140" rx="15" transform="translate(0 0)" fill="url(#linear-gradient)"/>
          <rect id="Rectangle_377" data-name="Rectangle 377" width="73" height="73" transform="translate(33.5 33.5)" fill="none"/>
          <g id="Group_276" data-name="Group 276" transform="translate(36.176 36.175)">
            <path id="Path_321" data-name="Path 321" d="M-929.9,272.987a3.455,3.455,0,0,1-3.454,3.454H-970.5l6.663,5.556a3.578,3.578,0,0,1,1.273,2.428,3.381,3.381,0,0,1-.815,2.509,3.442,3.442,0,0,1-2.64,1.222,3.493,3.493,0,0,1-2.249-.83l-14.012-11.682a3.934,3.934,0,0,1-.455-.44,3.484,3.484,0,0,1,.455-4.889l14.012-11.665a3.518,3.518,0,0,1,2.249-.847,3.469,3.469,0,0,1,2.688,1.287,3.486,3.486,0,0,1,.767,2.542,3.486,3.486,0,0,1-1.273,2.33l-6.663,5.556h37.148A3.47,3.47,0,0,1-929.9,272.987Z" transform="translate(983.531 -220.507)" fill="#fff"/>
            <path id="Path_322" data-name="Path 322" d="M-921.192,249.116-935.2,260.8a3.491,3.491,0,0,1-2.183.765,3.464,3.464,0,0,1-2.64-1.222,3.429,3.429,0,0,1-.8-2.509,3.4,3.4,0,0,1,1.189-2.364l6.665-5.556h-37.149a3.47,3.47,0,0,1-3.47-3.454,3.484,3.484,0,0,1,3.47-3.47h37.149l-6.665-5.556a3.473,3.473,0,0,1-.44-4.806,3.469,3.469,0,0,1,2.689-1.288,3.417,3.417,0,0,1,2.183.782l14.012,11.667a3.817,3.817,0,0,1,.44.455A3.462,3.462,0,0,1-921.192,249.116Z" transform="translate(987.599 -231.34)" fill="#fff"/>
          </g>
        </g>
      </g>
    </g>
  </g>
</svg>
