<?xml version="1.0" encoding="UTF-8"?>
<svg width="21px" height="17px" viewBox="0 0 21 17" version="1.1" xmlns="http://www.w3.org/2000/svg" xmlns:xlink="http://www.w3.org/1999/xlink">
    <!-- Generator: Sketch 54.1 (76490) - https://sketchapp.com -->
    <title>import</title>
    <desc>Created with Sketch.</desc>
    <g id="Rubisight-Phase-2" stroke="none" stroke-width="1" fill="none" fill-rule="evenodd">
        <g id="Icons" transform="translate(-586.000000, -106.000000)" fill="#6D6E71" fill-rule="nonzero" stroke="#6D6E71" stroke-width="1.06166667">
            <g id="import" transform="translate(586.000000, 106.000000)">
                <path d="M16.6742032,16.0125231 L2.66010133,16.0125231 C1.52424709,16.0125231 0.599261729,15.0852348 0.599261729,13.9445278 L0.599261729,3.19074014 C0.599261729,2.04988167 1.52424709,1.12259338 2.66010133,1.12259338 L10.3768296,1.12259338 C10.6043024,1.12259338 10.788907,1.30799045 10.788907,1.536253 C10.788907,1.76451558 10.6043024,1.94991266 10.3768296,1.94991266 L2.66010133,1.94991266 C1.97843784,1.94991266 1.42356738,2.5065583 1.42356738,3.19074014 L1.42356738,13.9445278 C1.42356738,14.6285582 1.97843784,15.1853553 2.66010133,15.1853553 L16.6742032,15.1853553 C17.3560176,15.1853553 17.9107371,14.6285582 17.9107371,13.9445278 L17.9107371,9.50997958 C17.9107371,9.28171704 18.0953418,9.09631996 18.3229654,9.09631996 C18.5504382,9.09631996 18.7350428,9.28171704 18.7350428,9.50997958 L18.7350428,13.9445278 C18.7350428,15.0852348 17.8102084,16.0125231 16.6742032,16.0125231 Z" id="Path"></path>
                <g id="Group-14" transform="translate(14.374262, 6.600000) scale(-1, 1) rotate(90.000000) translate(-14.374262, -6.600000) translate(8.374262, 0.100000)">
                    <path d="M8.6557377,5.78998544 C8.55022778,5.78998544 8.44471789,5.749392 8.3639628,5.66926529 C8.20320735,5.50795167 8.20320735,5.24560875 8.3639628,5.08429513 L10.5460105,2.89467086 L8.36471751,0.705955377 C8.204113,0.544641756 8.204113,0.282298837 8.36471751,0.120985216 C8.52547299,-0.0403284053 8.78690811,-0.0403284053 8.94766359,0.120985216 L11.4207315,2.60264017 C11.5814869,2.76395379 11.5814869,3.02629671 11.4207315,3.18761033 L8.94766359,5.66926529 C8.86675756,5.749392 8.76124763,5.78998544 8.6557377,5.78998544 L8.6557377,5.78998544 Z" id="Path"></path>
                    <path d="M0.41222831,12.4077825 C0.184755562,12.4077825 -1.67865721e-13,12.2223854 -1.67865721e-13,11.9941228 C-1.67865721e-13,6.74877915 4.25284965,2.48116266 9.48019433,2.48116266 L11.1288056,2.48116266 C11.3564293,2.48116266 11.5410339,2.66640827 11.5410339,2.89467086 C11.5410339,3.1230849 11.3564293,3.30833048 11.1288056,3.30833048 L9.48019433,3.30833048 C4.70719137,3.30833048 0.824456621,7.20454695 0.824456621,11.9941228 C0.824456621,12.2223854 0.639701059,12.4077825 0.41222831,12.4077825 Z" id="Path"></path>
                </g>
            </g>
        </g>
    </g>
</svg>