<?xml version="1.0" encoding="UTF-8"?>
<svg width="19px" height="19px" viewBox="0 0 19 19" version="1.1" xmlns="http://www.w3.org/2000/svg"
     xmlns:xlink="http://www.w3.org/1999/xlink">
  <!-- Generator: Sketch 54.1 (76490) - https://sketchapp.com -->
  <title>global</title>
  <desc>Created with Sketch.</desc>
  <g id="Backbone-Rebranding" stroke="none" stroke-width="1" fill="none" fill-rule="evenodd">
    <g id="Rubiscape" transform="translate(-1199.000000, -9.000000)" fill="#6D6E71" fill-rule="nonzero">
      <g id="global" transform="translate(1199.000000, 9.000000)">
        <path
          d="M17.233636,4.0452547 C17.233318,4.03914614 17.2326423,4.03303758 17.2316088,4.02696868 C17.2078787,3.99313361 17.1787029,3.96401879 17.1542573,3.93085804 C16.976977,3.6898476 16.7892824,3.457881 16.5912134,3.23491858 C16.5369561,3.17399165 16.482659,3.11373904 16.4270502,3.05416075 C16.2230983,2.83619624 16.0091695,2.62834656 15.7853033,2.43069102 C15.7439247,2.394119 15.705249,2.356238 15.6638703,2.32034029 C15.1121548,1.84867223 14.5080502,1.44162004 13.8634414,1.10723591 C13.8376444,1.09370981 13.8105356,1.08220668 13.7840628,1.06864092 C13.4969958,0.923066806 13.2026548,0.792208768 12.9021527,0.676661795 C12.8343013,0.652306889 12.7725711,0.62926096 12.7081381,0.608951983 C12.4408661,0.512841336 12.1695,0.428670146 11.8940795,0.356438413 C11.8126736,0.334780793 11.7312678,0.312448852 11.6485105,0.293488518 C11.3771444,0.230538622 11.105818,0.182463466 10.8283305,0.143194154 C10.7442218,0.131016701 10.6614644,0.114753653 10.5766402,0.104599165 C9.86199372,0.0179290188 9.13947699,0.0179290188 8.42479079,0.104599165 C8.34000628,0.114753653 8.25724895,0.131016701 8.17310042,0.143194154 C7.89565272,0.182463466 7.62158368,0.230538622 7.3529205,0.293488518 C7.27016318,0.312448852 7.18875732,0.334780793 7.10735146,0.356438413 C6.83010251,0.42863048 6.55877615,0.51280167 6.29329289,0.608951983 C6.22544142,0.631958246 6.1637113,0.655004175 6.09927824,0.676661795 C5.7988159,0.792208768 5.50443515,0.92302714 5.2173682,1.06864092 C5.1908954,1.08216701 5.16378661,1.09367015 5.13798954,1.10723591 C4.49123431,1.44126305 3.88510251,1.84827557 3.33143933,2.32034029 C3.29006067,2.35619833 3.25138494,2.394119 3.21000628,2.43069102 C2.98387448,2.62925887 2.76994561,2.83710856 2.56825941,3.05416075 C2.51265063,3.11373904 2.45835356,3.17399165 2.40409623,3.23491858 C2.20555021,3.45740501 2.01785565,3.68937161 1.8410523,3.93081837 C1.81664644,3.96397912 1.78747071,3.99309395 1.76370084,4.02692902 C1.76060042,4.03283925 1.75785774,4.03894781 1.7555523,4.04521503 C-0.584309623,7.31753862 -0.584309623,11.7113382 1.7555523,14.9836221 C1.75785774,14.9898894 1.76056067,14.9959979 1.76370084,15.0019081 C1.78743096,15.0357432 1.81660669,15.064858 1.8410523,15.0980188 C2.0178954,15.3390292 2.20555021,15.5709958 2.40409623,15.7939582 C2.45835356,15.8548852 2.51265063,15.9151378 2.56825941,15.9747161 C2.77268828,16.1926806 2.98657741,16.4005303 3.21000628,16.5981858 C3.25138494,16.6347578 3.29006067,16.6726388 3.33143933,16.7085365 C3.88315481,17.1802046 4.48725941,17.5872568 5.1318682,17.9216409 C5.15766527,17.935167 5.18477406,17.9466701 5.21124686,17.9602359 C5.49831381,18.10581 5.79265481,18.2366681 6.0931569,18.352215 C6.16100837,18.3765699 6.22273849,18.3996159 6.28717155,18.4199248 C6.55444351,18.5160355 6.82580962,18.6002067 7.10123013,18.6724384 C7.18263598,18.694096 7.26404184,18.716428 7.34679916,18.7353883 C7.61816527,18.7983382 7.88949163,18.8464134 8.16697908,18.8856827 C8.25108787,18.8978601 8.33384519,18.9141232 8.41866946,18.9242777 C9.1333159,19.0109478 9.85583264,19.0109478 10.5705188,18.9242777 C10.6553033,18.9141232 10.7380607,18.8978601 10.8222092,18.8856827 C11.0996569,18.8464134 11.3737259,18.7983382 11.6423891,18.7353883 C11.7251464,18.716428 11.8065523,18.694096 11.8879582,18.6724384 C12.1656444,18.6002463 12.4370105,18.5160752 12.7020167,18.4199248 C12.7698682,18.3969186 12.8315983,18.3738727 12.8960314,18.352215 C13.1964937,18.2366681 13.4908745,18.1058497 13.7779414,17.9602359 C13.8044142,17.9467098 13.831523,17.9352067 13.8573201,17.9216409 C14.5019289,17.5872171 15.1060335,17.1802046 15.657749,16.7085365 C15.6991276,16.6726388 15.7378033,16.6347578 15.779182,16.5981858 C16.0053138,16.4000543 16.2192427,16.1922443 16.4209289,15.9747161 C16.4765377,15.9151378 16.5308347,15.8548852 16.5850921,15.7939582 C16.7836381,15.5709958 16.9713326,15.3390292 17.148136,15.0980188 C17.1725418,15.064858 17.2017176,15.0357432 17.2254874,15.0019081 C17.2285879,14.9959979 17.2313305,14.9898894 17.233636,14.9836221 C19.5734979,11.7113779 19.5734979,7.31757829 17.233636,4.0452547 Z M16.4596046,5.32610856 C17.108387,6.39236952 17.5001527,7.5944071 17.6040167,8.83753862 L13.5405209,8.83753862 C13.4907552,8.03089144 13.3635586,7.23090814 13.1606402,6.44853653 C14.3084707,6.23402296 15.4194937,5.85600626 16.4596046,5.32610856 Z M11.2238326,1.57771399 C11.2618326,1.58651983 11.2984414,1.59869729 11.3364414,1.60750313 C11.5793075,1.66438413 11.8201464,1.72935699 12.0555397,1.8105929 C12.0915126,1.82277035 12.1267699,1.83701044 12.1620669,1.84986221 C12.3954331,1.93109812 12.6253808,2.02113987 12.8506381,2.1206618 C12.8899895,2.13894781 12.9286653,2.15925678 12.9680167,2.1775428 C13.1837343,2.28 13.3944833,2.39078706 13.6002636,2.50994363 L13.7359268,2.59185386 C13.9312929,2.71101044 14.1212531,2.83849687 14.3057678,2.97435282 C14.3532678,3.00886221 14.400728,3.04206263 14.4475523,3.07994363 C14.6284498,3.21532359 14.8016757,3.36042171 14.9671904,3.515238 C15.0105962,3.55450731 15.0553933,3.5931023 15.0981234,3.63372025 C15.2717866,3.79821503 15.4373013,3.97218998 15.59741,4.15227349 C15.6177615,4.17595407 15.6394644,4.19761169 15.6598159,4.2199833 C14.7412573,4.65682463 13.7681632,4.96875783 12.7665293,5.14741336 C12.3025,3.87445303 11.6895314,2.66059499 10.9403431,1.53106681 C11.0345481,1.54796451 11.1308996,1.55744468 11.2238326,1.57771399 Z M6.80891632,8.83749896 C6.86241841,8.10502714 6.98738912,7.37949687 7.18203975,6.67122129 C7.95066527,6.76233403 8.72402092,6.80751357 9.4980523,6.80660125 C10.2727992,6.80636326 11.0468703,6.7600334 11.8160921,6.66781002 C12.0103849,7.37723591 12.1346799,8.10391649 12.1871485,8.83749896 L6.80891632,8.83749896 Z M12.1871485,10.1914572 C12.1336464,10.923929 12.0086757,11.6494593 11.8140251,12.3577349 C11.0453996,12.2666221 10.2720439,12.2214426 9.49801255,12.2223549 C8.72330544,12.2214823 7.94927406,12.2666618 7.1799728,12.3577349 C6.98587866,11.6494196 6.86162343,10.9238894 6.80887657,10.1914572 L12.1871485,10.1914572 L12.1871485,10.1914572 Z M9.49801255,1.83229019 C10.2700167,2.92417537 10.9049665,4.10641962 11.3886715,5.3525261 C10.7606778,5.41908559 10.1295837,5.45252401 9.49801255,5.45272234 C8.8671569,5.45196868 8.23673849,5.41833194 7.60938075,5.35185177 C8.09368201,4.10657829 8.72787657,2.92473069 9.49801255,1.83229019 Z M3.39937029,4.1515595 C3.55880335,3.97147599 3.72499372,3.79750104 3.8986569,3.63300626 C3.94138703,3.59238831 3.9861841,3.55379332 4.02958996,3.51452401 C4.19693305,3.36244468 4.370159,3.21734656 4.54922803,3.07922965 C4.5960523,3.04333194 4.64351255,3.01151983 4.69101255,2.97363883 C4.8755272,2.83825887 5.06548745,2.71073278 5.26085356,2.59113987 L5.39651674,2.50922965 C5.60229707,2.38920042 5.81304603,2.2783737 6.0287636,2.17682881 C6.06811506,2.1585428 6.10679079,2.13823382 6.14614226,2.11994781 C6.37135983,2.01840292 6.60134728,1.92836117 6.83471339,1.84914823 C6.86997071,1.83629645 6.90256485,1.82205637 6.94120084,1.80987891 C7.17659414,1.73134029 7.41608159,1.66636743 7.66029916,1.60678914 C7.69829916,1.5979833 7.73490795,1.58580585 7.77358368,1.57767432 C7.86651674,1.55736534 7.9628682,1.54788518 8.05715272,1.53094781 C7.30764644,2.66067432 6.69447908,3.87477035 6.23025105,5.14796868 C5.22861715,4.96931315 4.25548326,4.65737996 3.33696444,4.22053862 C3.3573159,4.1968977 3.37901883,4.17524008 3.39937029,4.1515595 Z M2.53646025,5.32610856 C3.57633264,5.8559666 4.68711715,6.2339833 5.83474895,6.44853653 C5.63206904,7.23094781 5.50507113,8.03093111 5.45554393,8.83753862 L1.39204812,8.83753862 C1.49595188,7.5944071 1.88771757,6.39236952 2.53646025,5.32610856 Z M2.53646025,13.7028873 C1.88767782,12.6366263 1.49591213,11.4345887 1.39204812,10.1914572 L5.45554393,10.1914572 C5.50530962,10.9981044 5.63250628,11.7980877 5.83542469,12.5804593 C4.68759414,12.7949332 3.57657113,13.1729499 2.53646025,13.7028873 Z M7.77223222,17.4512422 C7.73423222,17.4424363 7.69762343,17.4302589 7.65962343,17.421453 C7.41675732,17.364572 7.17591841,17.2995992 6.9405251,17.2183633 C6.9045523,17.2061858 6.86929498,17.1919457 6.83399791,17.1790939 C6.6006318,17.097858 6.3706841,17.0078163 6.14542678,16.9082944 C6.10607531,16.8900084 6.06739958,16.8696994 6.02804812,16.8514134 C5.81233054,16.7489562 5.60158159,16.6381691 5.39580126,16.5190125 L5.26013808,16.4371023 C5.06477197,16.3179457 4.87481172,16.1904593 4.69029707,16.0546033 C4.64279707,16.0200939 4.59533682,15.9868935 4.54851255,15.9490125 C4.36761506,15.8136326 4.19438912,15.6685344 4.02887448,15.5137182 C3.98546862,15.4744489 3.94067155,15.4358539 3.89794142,15.3952359 C3.72427824,15.2307411 3.5587636,15.0567662 3.39865481,14.8766827 C3.37830335,14.8530021 3.35660042,14.8313445 3.33624895,14.8089729 C4.25480753,14.3721315 5.22790167,14.0601983 6.22953556,13.8815428 C6.69356485,15.1545031 7.30653347,16.3683612 8.05572176,17.4978894 C7.96147699,17.4810313 7.86516527,17.4715511 7.77223222,17.4512422 Z M9.49801255,17.1967056 C8.72600837,16.1048205 8.09105858,14.9225762 7.60735356,13.6764697 C8.86369874,13.5415261 10.1309351,13.5415261 11.3872803,13.6764697 L11.3866046,13.6771441 C10.9023828,14.9223779 10.2681883,16.1042255 9.49801255,17.1967056 Z M15.5966946,14.8773967 C15.4372615,15.0574802 15.2710711,15.2314551 15.0974079,15.3959499 C15.0546778,15.4365678 15.0098808,15.4751628 14.9664749,15.5144322 C14.7991318,15.6669875 14.6259059,15.8120856 14.4468368,15.9497265 C14.4000126,15.9855846 14.3525523,16.0208079 14.3050523,16.0553173 C14.1205377,16.1906973 13.9305774,16.3182234 13.7352113,16.4378163 L13.5995481,16.5197265 C13.394205,16.6393194 13.1834561,16.7501065 12.9673013,16.8521273 C12.9279498,16.8704134 12.8892741,16.8907223 12.8499226,16.9090084 C12.624705,17.0105532 12.3947176,17.100595 12.1613515,17.1798079 C12.1260941,17.1926597 12.0935,17.2068998 12.054864,17.2190772 C11.8194707,17.2976159 11.5799833,17.3625887 11.3357657,17.422167 C11.2977657,17.4309729 11.2611569,17.4431503 11.2224812,17.4512818 C11.1295481,17.4715908 11.0331967,17.481071 10.9389121,17.4980084 C11.6881004,16.3684802 12.3011088,15.1546221 12.7650983,13.8816618 C13.7667322,14.0603173 14.7398661,14.3722505 15.6583849,14.8090919 C15.638749,14.8320585 15.617046,14.8537161 15.5966946,14.8773967 Z M16.4596046,13.7028873 C15.4197322,13.1730292 14.3089477,12.7950125 13.1613159,12.5804593 C13.3639958,11.798048 13.4909937,10.9980647 13.5405209,10.1914572 L17.6040167,10.1914572 C17.500113,11.4345491 17.1083473,12.6365866 16.4596046,13.7028873 Z"
          id="Shape"></path>
      </g>
    </g>
  </g>
</svg>
