<?xml version="1.0" encoding="UTF-8"?>
<svg width="20px" height="21px" viewBox="0 0 20 21" version="1.1" xmlns="http://www.w3.org/2000/svg" xmlns:xlink="http://www.w3.org/1999/xlink">
    <!-- Generator: Sketch 54.1 (76490) - https://sketchapp.com -->
    <title>search</title>
    <desc>Created with Sketch.</desc>
    <g id="Rubisight-Phase-2" stroke="none" stroke-width="1" fill="none" fill-rule="evenodd">
        <g id="Icons" transform="translate(-45.000000, -105.000000)" fill="#6D6E71" fill-rule="nonzero" stroke="#6D6E71">
            <g id="search" transform="translate(46.000000, 106.000000)">
                <path d="M17.5582233,17.4529384 L12.4263642,12.0304044 C13.399724,10.7606669 13.9856376,9.14643379 13.9856376,7.38891908 C13.9856376,3.31469038 10.8486312,-7.81597009e-14 6.99280153,-7.81597009e-14 C3.13697189,-7.81597009e-14 -3.7658765e-13,3.31469038 -3.7658765e-13,7.38891908 C-3.7658765e-13,11.4631478 3.13700639,14.7778382 6.99283604,14.7778382 C8.65613916,14.7778382 10.1838413,14.1587012 11.3855145,13.1302456 L16.5173736,18.5527797 C16.661152,18.704629 16.8941235,18.704629 17.037902,18.5527797 L17.5582578,18.0029137 C17.7019673,17.851028 17.7019673,17.6047878 17.5582233,17.4529384 Z M6.99283604,13.2222667 C3.94857658,13.2222667 1.47218509,10.6056092 1.47218509,7.38891908 C1.47218509,4.17222894 3.94857658,1.55557151 6.99283604,1.55557151 C10.0370955,1.55557151 12.513487,4.17222894 12.513487,7.38891908 C12.513487,10.6056092 10.0370955,13.2222667 6.99283604,13.2222667 Z" id="Shape"></path>
            </g>
        </g>
    </g>
</svg>